<svg width="67" height="80" viewBox="0 0 67 80" fill="none" xmlns="http://www.w3.org/2000/svg">
<path d="M29.1934 34.7094C29.1934 32.3233 31.1277 30.389 33.5138 30.389C34.6628 30.3841 35.7664 30.8372 36.5806 31.6479C37.3948 32.4587 37.8525 33.5604 37.8525 34.7094M30.5481 39.2128H30.5939M36.3788 39.2128H36.4246M29.3307 49.611H37.6786C40.7449 49.611 43.0973 48.5034 42.4292 44.0458L41.6511 38.0046C41.2392 35.7803 39.8205 34.929 38.5756 34.929H28.3971C27.1339 34.929 25.7975 35.8444 25.3216 38.0046L24.5435 44.0458C23.976 48 26.2644 49.611 29.3307 49.611Z" stroke="#8F959E" stroke-width="1.5" stroke-linecap="round" stroke-linejoin="round"/>
</svg>
