<svg width="67" height="80" viewBox="0 0 67 80" fill="none" xmlns="http://www.w3.org/2000/svg">
<path d="M37.2393 35.053C38.3046 35.3933 39.0615 36.3497 39.1561 37.475M33.261 48.8538C31.0904 47.5179 29.0711 45.9456 27.2393 44.1652C25.9514 42.8829 24.971 41.3198 24.3731 39.5954C23.2971 36.2503 24.5539 32.4208 28.0711 31.2875C29.9196 30.6924 31.9384 31.0326 33.4961 32.2015C35.0543 31.034 37.0725 30.694 38.9211 31.2875C42.4383 32.4208 43.7041 36.2503 42.6281 39.5954C42.0302 41.3198 41.0498 42.8829 39.7619 44.1652C37.9301 45.9456 35.9108 47.5179 33.7402 48.8538L33.5051 49L33.261 48.8538Z" stroke="#8F959E" stroke-width="1.5" stroke-linecap="round" stroke-linejoin="round"/>
</svg>
