<svg width="67" height="80" viewBox="0 0 67 80" fill="none" xmlns="http://www.w3.org/2000/svg">
<path d="M30.6572 48.7714V45.7047C30.6572 44.9246 31.2931 44.2908 32.081 44.2856H34.9671C35.7587 44.2856 36.4005 44.9209 36.4005 45.7047V48.7809C36.4003 49.4432 36.9343 49.9845 37.603 50H39.5271C41.4451 50 43 48.4607 43 46.5618V37.8378C42.9898 37.0908 42.6355 36.3893 42.038 35.933L35.4577 30.6853C34.3049 29.7716 32.6662 29.7716 31.5134 30.6853L24.962 35.9426C24.3623 36.397 24.0074 37.0997 24 37.8474V46.5618C24 48.4607 25.5549 50 27.4729 50H29.397C30.0823 50 30.638 49.4499 30.638 48.7714" stroke="#8F959E" stroke-width="1.5" stroke-linecap="round" stroke-linejoin="round"/>
</svg>
